<mxfile host="app.diagrams.net" modified="2022-02-08T02:52:44.631Z" agent="5.0 (Windows NT 10.0; Win64; x64) AppleWebKit/537.36 (KHTML, like Gecko) Chrome/98.0.4758.81 Safari/537.36" etag="eTK_JiOuZp9lYbOw2syr" version="16.5.3" type="github" pages="2">
  <diagram id="r1CYepcf3uNLZu3yzhZW" name="1.0">
    <mxGraphModel dx="1450" dy="794" grid="1" gridSize="10" guides="1" tooltips="1" connect="1" arrows="1" fold="1" page="1" pageScale="1" pageWidth="827" pageHeight="1169" math="0" shadow="0">
      <root>
        <mxCell id="ZHrV-SKR3CrECzMLhf3h-0" />
        <mxCell id="ZHrV-SKR3CrECzMLhf3h-1" parent="ZHrV-SKR3CrECzMLhf3h-0" />
        <mxCell id="ChN8a61VgWDeroaSJTKL-4" style="edgeStyle=orthogonalEdgeStyle;rounded=0;orthogonalLoop=1;jettySize=auto;html=1;entryX=0.5;entryY=0;entryDx=0;entryDy=0;fontColor=#000000;" parent="ZHrV-SKR3CrECzMLhf3h-1" source="ChN8a61VgWDeroaSJTKL-0" target="XqMH74E5YItouWOvVfTs-2" edge="1">
          <mxGeometry relative="1" as="geometry">
            <mxPoint x="370" y="330" as="targetPoint" />
            <Array as="points">
              <mxPoint x="290" y="330" />
              <mxPoint x="370" y="330" />
            </Array>
          </mxGeometry>
        </mxCell>
        <mxCell id="XqMH74E5YItouWOvVfTs-10" style="edgeStyle=orthogonalEdgeStyle;rounded=0;orthogonalLoop=1;jettySize=auto;html=1;" parent="ZHrV-SKR3CrECzMLhf3h-1" source="ChN8a61VgWDeroaSJTKL-0" target="BAKBfmUSfk_q0j3Lv--C-0" edge="1">
          <mxGeometry relative="1" as="geometry">
            <Array as="points">
              <mxPoint x="290" y="330" />
              <mxPoint x="180" y="330" />
            </Array>
          </mxGeometry>
        </mxCell>
        <mxCell id="ChN8a61VgWDeroaSJTKL-0" value="Kafka&lt;br&gt;接收一个点数据" style="ellipse;whiteSpace=wrap;html=1;aspect=fixed;fillColor=#f8cecc;strokeColor=#b85450;" parent="ZHrV-SKR3CrECzMLhf3h-1" vertex="1">
          <mxGeometry x="250" y="190" width="100" height="100" as="geometry" />
        </mxCell>
        <mxCell id="v_KPX6rK-PpgQseJSDLQ-1" style="edgeStyle=orthogonalEdgeStyle;rounded=0;orthogonalLoop=1;jettySize=auto;html=1;entryX=0.5;entryY=0;entryDx=0;entryDy=0;fontColor=#000000;" parent="ZHrV-SKR3CrECzMLhf3h-1" source="BAKBfmUSfk_q0j3Lv--C-0" edge="1">
          <mxGeometry relative="1" as="geometry">
            <Array as="points">
              <mxPoint x="80" y="495" />
              <mxPoint x="80" y="670" />
              <mxPoint x="180" y="670" />
            </Array>
            <mxPoint x="180" y="750" as="targetPoint" />
          </mxGeometry>
        </mxCell>
        <mxCell id="szs4NrODLww8IXhw6a9I-2" style="edgeStyle=orthogonalEdgeStyle;rounded=0;orthogonalLoop=1;jettySize=auto;html=1;entryX=0.5;entryY=0;entryDx=0;entryDy=0;fontColor=#000000;" parent="ZHrV-SKR3CrECzMLhf3h-1" source="BAKBfmUSfk_q0j3Lv--C-0" target="XqMH74E5YItouWOvVfTs-6" edge="1">
          <mxGeometry relative="1" as="geometry">
            <mxPoint x="180" y="590" as="targetPoint" />
          </mxGeometry>
        </mxCell>
        <mxCell id="BAKBfmUSfk_q0j3Lv--C-0" value="相同chamber上&lt;br&gt;RunId是否变化" style="rhombus;whiteSpace=wrap;html=1;" parent="ZHrV-SKR3CrECzMLhf3h-1" vertex="1">
          <mxGeometry x="115" y="460" width="130" height="70" as="geometry" />
        </mxCell>
        <mxCell id="v_KPX6rK-PpgQseJSDLQ-2" value="否" style="text;html=1;align=center;verticalAlign=middle;resizable=0;points=[];autosize=1;strokeColor=none;fillColor=none;fontColor=#000000;" parent="ZHrV-SKR3CrECzMLhf3h-1" vertex="1">
          <mxGeometry x="85" y="480" width="30" height="20" as="geometry" />
        </mxCell>
        <mxCell id="szs4NrODLww8IXhw6a9I-3" style="edgeStyle=orthogonalEdgeStyle;rounded=0;orthogonalLoop=1;jettySize=auto;html=1;fontColor=#000000;exitX=0.5;exitY=1;exitDx=0;exitDy=0;startArrow=none;" parent="ZHrV-SKR3CrECzMLhf3h-1" source="XqMH74E5YItouWOvVfTs-0" edge="1">
          <mxGeometry relative="1" as="geometry">
            <mxPoint x="180" y="750" as="targetPoint" />
            <mxPoint x="180" y="650" as="sourcePoint" />
          </mxGeometry>
        </mxCell>
        <mxCell id="2Cg2mxZNibqtd9_5cEmN-9" style="edgeStyle=orthogonalEdgeStyle;rounded=0;orthogonalLoop=1;jettySize=auto;html=1;entryX=0;entryY=0.5;entryDx=0;entryDy=0;exitX=1;exitY=0.5;exitDx=0;exitDy=0;" parent="ZHrV-SKR3CrECzMLhf3h-1" source="XqMH74E5YItouWOvVfTs-6" target="2Cg2mxZNibqtd9_5cEmN-8" edge="1">
          <mxGeometry relative="1" as="geometry">
            <mxPoint x="240" y="620" as="sourcePoint" />
            <Array as="points">
              <mxPoint x="480" y="610" />
              <mxPoint x="480" y="230" />
            </Array>
          </mxGeometry>
        </mxCell>
        <mxCell id="szs4NrODLww8IXhw6a9I-4" value="是" style="text;html=1;align=center;verticalAlign=middle;resizable=0;points=[];autosize=1;strokeColor=none;fillColor=none;fontColor=#000000;" parent="ZHrV-SKR3CrECzMLhf3h-1" vertex="1">
          <mxGeometry x="175" y="550" width="30" height="20" as="geometry" />
        </mxCell>
        <mxCell id="2Cg2mxZNibqtd9_5cEmN-0" style="edgeStyle=orthogonalEdgeStyle;rounded=0;orthogonalLoop=1;jettySize=auto;html=1;entryX=0.5;entryY=0;entryDx=0;entryDy=0;fontColor=#000000;" parent="ZHrV-SKR3CrECzMLhf3h-1" source="2Cg2mxZNibqtd9_5cEmN-1" target="2Cg2mxZNibqtd9_5cEmN-4" edge="1">
          <mxGeometry relative="1" as="geometry" />
        </mxCell>
        <mxCell id="2Cg2mxZNibqtd9_5cEmN-1" value="仿真" style="rounded=0;whiteSpace=wrap;html=1;" parent="ZHrV-SKR3CrECzMLhf3h-1" vertex="1">
          <mxGeometry x="540" y="330" width="120" height="60" as="geometry" />
        </mxCell>
        <mxCell id="2Cg2mxZNibqtd9_5cEmN-2" value="仿真结果保存" style="rounded=0;whiteSpace=wrap;html=1;" parent="ZHrV-SKR3CrECzMLhf3h-1" vertex="1">
          <mxGeometry x="540" y="660" width="120" height="60" as="geometry" />
        </mxCell>
        <mxCell id="2Cg2mxZNibqtd9_5cEmN-3" style="edgeStyle=orthogonalEdgeStyle;rounded=0;orthogonalLoop=1;jettySize=auto;html=1;fontColor=#000000;" parent="ZHrV-SKR3CrECzMLhf3h-1" source="2Cg2mxZNibqtd9_5cEmN-4" target="2Cg2mxZNibqtd9_5cEmN-6" edge="1">
          <mxGeometry relative="1" as="geometry" />
        </mxCell>
        <mxCell id="2Cg2mxZNibqtd9_5cEmN-4" value="&lt;pre style=&quot;background-color: rgb(255 , 255 , 255) ; font-family: &amp;#34;jetbrains mono&amp;#34; , monospace ; font-size: 11.3pt&quot;&gt;CheckFault&lt;/pre&gt;" style="rounded=0;whiteSpace=wrap;html=1;" parent="ZHrV-SKR3CrECzMLhf3h-1" vertex="1">
          <mxGeometry x="540" y="440" width="120" height="60" as="geometry" />
        </mxCell>
        <mxCell id="2Cg2mxZNibqtd9_5cEmN-5" style="edgeStyle=orthogonalEdgeStyle;rounded=0;orthogonalLoop=1;jettySize=auto;html=1;entryX=0.5;entryY=0;entryDx=0;entryDy=0;fontColor=#000000;" parent="ZHrV-SKR3CrECzMLhf3h-1" source="2Cg2mxZNibqtd9_5cEmN-6" target="2Cg2mxZNibqtd9_5cEmN-2" edge="1">
          <mxGeometry relative="1" as="geometry" />
        </mxCell>
        <mxCell id="2Cg2mxZNibqtd9_5cEmN-6" value="&lt;pre style=&quot;background-color: #ffffff ; color: #080808 ; font-family: &amp;#34;jetbrains mono&amp;#34; , monospace ; font-size: 11.3pt&quot;&gt;&lt;span style=&quot;color: #000000&quot;&gt;Alarm-Action&lt;/span&gt;&lt;/pre&gt;" style="rounded=0;whiteSpace=wrap;html=1;fontColor=#000000;" parent="ZHrV-SKR3CrECzMLhf3h-1" vertex="1">
          <mxGeometry x="540" y="550" width="120" height="60" as="geometry" />
        </mxCell>
        <mxCell id="2Cg2mxZNibqtd9_5cEmN-7" style="edgeStyle=orthogonalEdgeStyle;rounded=0;orthogonalLoop=1;jettySize=auto;html=1;fontColor=#000000;" parent="ZHrV-SKR3CrECzMLhf3h-1" source="2Cg2mxZNibqtd9_5cEmN-8" target="2Cg2mxZNibqtd9_5cEmN-1" edge="1">
          <mxGeometry relative="1" as="geometry" />
        </mxCell>
        <mxCell id="2Cg2mxZNibqtd9_5cEmN-8" value="Kafka-仿真" style="ellipse;whiteSpace=wrap;html=1;fillColor=#f8cecc;strokeColor=#b85450;" parent="ZHrV-SKR3CrECzMLhf3h-1" vertex="1">
          <mxGeometry x="540" y="190" width="120" height="80" as="geometry" />
        </mxCell>
        <mxCell id="JnvZGoZAHK-gujl-D6xc-0" value="动态limit卡控" style="rounded=0;whiteSpace=wrap;html=1;" parent="ZHrV-SKR3CrECzMLhf3h-1" vertex="1">
          <mxGeometry x="827" y="320" width="120" height="60" as="geometry" />
        </mxCell>
        <mxCell id="JnvZGoZAHK-gujl-D6xc-1" style="edgeStyle=orthogonalEdgeStyle;rounded=0;orthogonalLoop=1;jettySize=auto;html=1;entryX=0.5;entryY=0;entryDx=0;entryDy=0;" parent="ZHrV-SKR3CrECzMLhf3h-1" source="JnvZGoZAHK-gujl-D6xc-2" target="JnvZGoZAHK-gujl-D6xc-0" edge="1">
          <mxGeometry relative="1" as="geometry" />
        </mxCell>
        <mxCell id="JnvZGoZAHK-gujl-D6xc-2" value="Kafka-动态Limit" style="ellipse;whiteSpace=wrap;html=1;fillColor=#f8cecc;strokeColor=#b85450;" parent="ZHrV-SKR3CrECzMLhf3h-1" vertex="1">
          <mxGeometry x="827" y="190" width="120" height="80" as="geometry" />
        </mxCell>
        <mxCell id="XqMH74E5YItouWOvVfTs-8" style="edgeStyle=orthogonalEdgeStyle;rounded=0;orthogonalLoop=1;jettySize=auto;html=1;entryX=0;entryY=0.5;entryDx=0;entryDy=0;" parent="ZHrV-SKR3CrECzMLhf3h-1" source="XqMH74E5YItouWOvVfTs-2" target="JnvZGoZAHK-gujl-D6xc-2" edge="1">
          <mxGeometry relative="1" as="geometry">
            <Array as="points">
              <mxPoint x="370" y="520" />
              <mxPoint x="460" y="520" />
              <mxPoint x="460" y="180" />
              <mxPoint x="770" y="180" />
              <mxPoint x="770" y="230" />
            </Array>
          </mxGeometry>
        </mxCell>
        <mxCell id="XqMH74E5YItouWOvVfTs-2" value="&lt;span&gt;Kafka&lt;br&gt;动态Limit&lt;/span&gt;" style="shape=process;whiteSpace=wrap;html=1;backgroundOutline=1;fillColor=#f8cecc;strokeColor=#b85450;" parent="ZHrV-SKR3CrECzMLhf3h-1" vertex="1">
          <mxGeometry x="310" y="430" width="120" height="60" as="geometry" />
        </mxCell>
        <mxCell id="XqMH74E5YItouWOvVfTs-6" value="&lt;span&gt;Kafka&lt;br&gt;静态Limit&lt;br&gt;&lt;/span&gt;" style="shape=process;whiteSpace=wrap;html=1;backgroundOutline=1;fillColor=#f8cecc;strokeColor=#b85450;" parent="ZHrV-SKR3CrECzMLhf3h-1" vertex="1">
          <mxGeometry x="120" y="580" width="120" height="60" as="geometry" />
        </mxCell>
        <mxCell id="XqMH74E5YItouWOvVfTs-0" value="数据入库" style="ellipse;whiteSpace=wrap;html=1;" parent="ZHrV-SKR3CrECzMLhf3h-1" vertex="1">
          <mxGeometry x="120" y="710" width="120" height="80" as="geometry" />
        </mxCell>
        <mxCell id="XqMH74E5YItouWOvVfTs-7" value="" style="edgeStyle=orthogonalEdgeStyle;rounded=0;orthogonalLoop=1;jettySize=auto;html=1;fontColor=#000000;exitX=0.5;exitY=1;exitDx=0;exitDy=0;endArrow=none;" parent="ZHrV-SKR3CrECzMLhf3h-1" source="XqMH74E5YItouWOvVfTs-6" target="XqMH74E5YItouWOvVfTs-0" edge="1">
          <mxGeometry relative="1" as="geometry">
            <mxPoint x="180" y="750" as="targetPoint" />
            <mxPoint x="180" y="640" as="sourcePoint" />
          </mxGeometry>
        </mxCell>
        <mxCell id="szs4NrODLww8IXhw6a9I-0" value="每run数据是否接收完成" style="text;html=1;align=center;verticalAlign=middle;resizable=0;points=[];autosize=1;strokeColor=none;fillColor=none;" parent="ZHrV-SKR3CrECzMLhf3h-1" vertex="1">
          <mxGeometry x="70" y="390" width="140" height="20" as="geometry" />
        </mxCell>
      </root>
    </mxGraphModel>
  </diagram>
  <diagram id="e6Jtuv579maglZvQebnI" name="1.1">
    <mxGraphModel dx="1208" dy="662" grid="1" gridSize="10" guides="1" tooltips="1" connect="1" arrows="1" fold="1" page="1" pageScale="1" pageWidth="827" pageHeight="1169" math="0" shadow="0">
      <root>
        <mxCell id="5ZKCv4_gXIRes1iLkZPY-0" />
        <mxCell id="5ZKCv4_gXIRes1iLkZPY-1" parent="5ZKCv4_gXIRes1iLkZPY-0" />
        <mxCell id="9pqSsdMpp38KkH7A1jvM-2" value="" style="edgeStyle=orthogonalEdgeStyle;rounded=0;orthogonalLoop=1;jettySize=auto;html=1;" parent="5ZKCv4_gXIRes1iLkZPY-1" source="9pqSsdMpp38KkH7A1jvM-0" target="9pqSsdMpp38KkH7A1jvM-1" edge="1">
          <mxGeometry relative="1" as="geometry" />
        </mxCell>
        <mxCell id="9pqSsdMpp38KkH7A1jvM-0" value="&lt;span&gt;Kafka&lt;/span&gt;&lt;br&gt;&lt;span&gt;接收一个点数据&lt;/span&gt;" style="strokeWidth=1;html=1;shape=mxgraph.flowchart.start_1;whiteSpace=wrap;fillColor=#f8cecc;strokeColor=#b85450;" parent="5ZKCv4_gXIRes1iLkZPY-1" vertex="1">
          <mxGeometry x="180" y="145" width="120" height="60" as="geometry" />
        </mxCell>
        <mxCell id="9pqSsdMpp38KkH7A1jvM-4" value="" style="edgeStyle=orthogonalEdgeStyle;rounded=0;orthogonalLoop=1;jettySize=auto;html=1;" parent="5ZKCv4_gXIRes1iLkZPY-1" source="9pqSsdMpp38KkH7A1jvM-1" target="9pqSsdMpp38KkH7A1jvM-3" edge="1">
          <mxGeometry relative="1" as="geometry" />
        </mxCell>
        <mxCell id="9pqSsdMpp38KkH7A1jvM-1" value="获取Online模型集合" style="whiteSpace=wrap;html=1;strokeWidth=1;" parent="5ZKCv4_gXIRes1iLkZPY-1" vertex="1">
          <mxGeometry x="180" y="265" width="120" height="60" as="geometry" />
        </mxCell>
        <mxCell id="ozsb1PKEgrEF2-M2M72j-0" style="edgeStyle=orthogonalEdgeStyle;rounded=0;orthogonalLoop=1;jettySize=auto;html=1;" parent="5ZKCv4_gXIRes1iLkZPY-1" source="9pqSsdMpp38KkH7A1jvM-3" target="9pqSsdMpp38KkH7A1jvM-5" edge="1">
          <mxGeometry relative="1" as="geometry">
            <Array as="points">
              <mxPoint x="70" y="420" />
              <mxPoint x="70" y="1860" />
              <mxPoint x="290" y="1860" />
            </Array>
          </mxGeometry>
        </mxCell>
        <mxCell id="ozsb1PKEgrEF2-M2M72j-5" value="" style="edgeStyle=orthogonalEdgeStyle;rounded=0;orthogonalLoop=1;jettySize=auto;html=1;entryX=0.5;entryY=0;entryDx=0;entryDy=0;entryPerimeter=0;exitX=0.5;exitY=1;exitDx=0;exitDy=0;" parent="5ZKCv4_gXIRes1iLkZPY-1" source="GOLqTJp_DhtDlTMWUTqs-0" target="ozsb1PKEgrEF2-M2M72j-16" edge="1">
          <mxGeometry relative="1" as="geometry">
            <mxPoint x="175" y="570" as="targetPoint" />
            <Array as="points">
              <mxPoint x="240" y="560" />
              <mxPoint x="240" y="640" />
              <mxPoint x="165" y="640" />
            </Array>
          </mxGeometry>
        </mxCell>
        <mxCell id="ozsb1PKEgrEF2-M2M72j-11" style="edgeStyle=orthogonalEdgeStyle;rounded=0;orthogonalLoop=1;jettySize=auto;html=1;exitX=0.5;exitY=1;exitDx=0;exitDy=0;entryX=0.5;entryY=0;entryDx=0;entryDy=0;" parent="5ZKCv4_gXIRes1iLkZPY-1" source="GOLqTJp_DhtDlTMWUTqs-0" target="iHpd8k2vpq0rTZhYfcM1-1" edge="1">
          <mxGeometry relative="1" as="geometry">
            <mxPoint x="359.76" y="568.3199999999999" as="targetPoint" />
            <Array as="points">
              <mxPoint x="240" y="560" />
              <mxPoint x="240" y="640" />
              <mxPoint x="360" y="640" />
            </Array>
          </mxGeometry>
        </mxCell>
        <mxCell id="GOLqTJp_DhtDlTMWUTqs-1" style="edgeStyle=orthogonalEdgeStyle;rounded=0;orthogonalLoop=1;jettySize=auto;html=1;entryX=0.5;entryY=0;entryDx=0;entryDy=0;" edge="1" parent="5ZKCv4_gXIRes1iLkZPY-1" source="9pqSsdMpp38KkH7A1jvM-3" target="GOLqTJp_DhtDlTMWUTqs-0">
          <mxGeometry relative="1" as="geometry" />
        </mxCell>
        <mxCell id="9pqSsdMpp38KkH7A1jvM-3" value="适用当前&lt;br&gt;chamber的模型？" style="rhombus;whiteSpace=wrap;html=1;strokeWidth=1;" parent="5ZKCv4_gXIRes1iLkZPY-1" vertex="1">
          <mxGeometry x="160" y="385" width="160" height="70" as="geometry" />
        </mxCell>
        <mxCell id="9pqSsdMpp38KkH7A1jvM-5" value="结束" style="strokeWidth=1;html=1;shape=mxgraph.flowchart.start_1;whiteSpace=wrap;" parent="5ZKCv4_gXIRes1iLkZPY-1" vertex="1">
          <mxGeometry x="240" y="1940" width="100" height="60" as="geometry" />
        </mxCell>
        <mxCell id="ozsb1PKEgrEF2-M2M72j-1" value="否" style="text;html=1;align=center;verticalAlign=middle;resizable=0;points=[];autosize=1;strokeColor=none;fillColor=none;" parent="5ZKCv4_gXIRes1iLkZPY-1" vertex="1">
          <mxGeometry x="105" y="395" width="30" height="20" as="geometry" />
        </mxCell>
        <mxCell id="ozsb1PKEgrEF2-M2M72j-9" value="是" style="text;html=1;align=center;verticalAlign=middle;resizable=0;points=[];autosize=1;strokeColor=none;fillColor=none;" parent="5ZKCv4_gXIRes1iLkZPY-1" vertex="1">
          <mxGeometry x="240" y="573" width="30" height="20" as="geometry" />
        </mxCell>
        <mxCell id="ozsb1PKEgrEF2-M2M72j-14" value="静态模型(Fixed)" style="text;html=1;align=center;verticalAlign=middle;resizable=0;points=[];autosize=1;strokeColor=none;fillColor=none;" parent="5ZKCv4_gXIRes1iLkZPY-1" vertex="1">
          <mxGeometry x="160" y="653" width="100" height="20" as="geometry" />
        </mxCell>
        <mxCell id="ozsb1PKEgrEF2-M2M72j-15" value="动态模型(Dynamic)" style="text;html=1;align=center;verticalAlign=middle;resizable=0;points=[];autosize=1;" parent="5ZKCv4_gXIRes1iLkZPY-1" vertex="1">
          <mxGeometry x="390" y="653" width="120" height="20" as="geometry" />
        </mxCell>
        <mxCell id="ozsb1PKEgrEF2-M2M72j-17" style="edgeStyle=orthogonalEdgeStyle;rounded=0;orthogonalLoop=1;jettySize=auto;html=1;exitX=0;exitY=0.5;exitDx=0;exitDy=0;exitPerimeter=0;entryX=0.5;entryY=0;entryDx=0;entryDy=0;entryPerimeter=0;" parent="5ZKCv4_gXIRes1iLkZPY-1" source="ozsb1PKEgrEF2-M2M72j-16" target="9pqSsdMpp38KkH7A1jvM-5" edge="1">
          <mxGeometry relative="1" as="geometry">
            <Array as="points">
              <mxPoint x="70" y="738" />
              <mxPoint x="70" y="1860" />
              <mxPoint x="290" y="1860" />
            </Array>
            <mxPoint x="244" y="1500" as="targetPoint" />
          </mxGeometry>
        </mxCell>
        <mxCell id="ozsb1PKEgrEF2-M2M72j-20" value="" style="edgeStyle=orthogonalEdgeStyle;rounded=0;orthogonalLoop=1;jettySize=auto;html=1;entryX=0.5;entryY=0;entryDx=0;entryDy=0;" parent="5ZKCv4_gXIRes1iLkZPY-1" source="ozsb1PKEgrEF2-M2M72j-16" target="iHpd8k2vpq0rTZhYfcM1-0" edge="1">
          <mxGeometry relative="1" as="geometry">
            <mxPoint x="165" y="823" as="targetPoint" />
          </mxGeometry>
        </mxCell>
        <mxCell id="ozsb1PKEgrEF2-M2M72j-16" value="Run是否结束" style="strokeWidth=1;html=1;shape=mxgraph.flowchart.decision;whiteSpace=wrap;" parent="5ZKCv4_gXIRes1iLkZPY-1" vertex="1">
          <mxGeometry x="107.5" y="708" width="115" height="60" as="geometry" />
        </mxCell>
        <mxCell id="ozsb1PKEgrEF2-M2M72j-18" value="否" style="text;html=1;align=center;verticalAlign=middle;resizable=0;points=[];autosize=1;strokeColor=none;fillColor=none;" parent="5ZKCv4_gXIRes1iLkZPY-1" vertex="1">
          <mxGeometry x="77.5" y="720" width="30" height="20" as="geometry" />
        </mxCell>
        <mxCell id="ozsb1PKEgrEF2-M2M72j-21" value="是" style="text;html=1;align=center;verticalAlign=middle;resizable=0;points=[];autosize=1;strokeColor=none;fillColor=none;" parent="5ZKCv4_gXIRes1iLkZPY-1" vertex="1">
          <mxGeometry x="160" y="770" width="30" height="20" as="geometry" />
        </mxCell>
        <mxCell id="4WC-akgWe15F0dEcDfo8-2" value="" style="edgeStyle=orthogonalEdgeStyle;rounded=0;orthogonalLoop=1;jettySize=auto;html=1;" edge="1" parent="5ZKCv4_gXIRes1iLkZPY-1" source="iHpd8k2vpq0rTZhYfcM1-0" target="4WC-akgWe15F0dEcDfo8-1">
          <mxGeometry relative="1" as="geometry" />
        </mxCell>
        <mxCell id="iHpd8k2vpq0rTZhYfcM1-0" value="&lt;span&gt;静态Limit卡控&lt;/span&gt;" style="shape=process;whiteSpace=wrap;html=1;backgroundOutline=1;fillColor=#f8cecc;strokeColor=#b85450;" vertex="1" parent="5ZKCv4_gXIRes1iLkZPY-1">
          <mxGeometry x="105" y="823" width="120" height="60" as="geometry" />
        </mxCell>
        <mxCell id="1h0vv5jrxgCh05w-5G5Z-1" style="edgeStyle=orthogonalEdgeStyle;rounded=0;orthogonalLoop=1;jettySize=auto;html=1;fontColor=#000000;" edge="1" parent="5ZKCv4_gXIRes1iLkZPY-1" source="iHpd8k2vpq0rTZhYfcM1-1" target="1h0vv5jrxgCh05w-5G5Z-0">
          <mxGeometry relative="1" as="geometry" />
        </mxCell>
        <mxCell id="iHpd8k2vpq0rTZhYfcM1-1" value="动态Limit卡控" style="shape=process;whiteSpace=wrap;html=1;backgroundOutline=1;fillColor=#f8cecc;strokeColor=#b85450;" vertex="1" parent="5ZKCv4_gXIRes1iLkZPY-1">
          <mxGeometry x="440" y="823" width="120" height="60" as="geometry" />
        </mxCell>
        <mxCell id="GOLqTJp_DhtDlTMWUTqs-3" style="edgeStyle=orthogonalEdgeStyle;rounded=0;orthogonalLoop=1;jettySize=auto;html=1;exitX=1;exitY=0.5;exitDx=0;exitDy=0;" edge="1" parent="5ZKCv4_gXIRes1iLkZPY-1" source="GOLqTJp_DhtDlTMWUTqs-0">
          <mxGeometry relative="1" as="geometry">
            <mxPoint x="240" y="350" as="targetPoint" />
            <Array as="points">
              <mxPoint x="350" y="538" />
              <mxPoint x="350" y="350" />
            </Array>
          </mxGeometry>
        </mxCell>
        <mxCell id="GOLqTJp_DhtDlTMWUTqs-0" value="Content Group&lt;br&gt;过滤当前Run？" style="rhombus;whiteSpace=wrap;html=1;strokeWidth=1;" vertex="1" parent="5ZKCv4_gXIRes1iLkZPY-1">
          <mxGeometry x="170" y="503" width="140" height="70" as="geometry" />
        </mxCell>
        <mxCell id="GOLqTJp_DhtDlTMWUTqs-4" value="否" style="text;html=1;align=center;verticalAlign=middle;resizable=0;points=[];autosize=1;strokeColor=none;fillColor=none;" vertex="1" parent="5ZKCv4_gXIRes1iLkZPY-1">
          <mxGeometry x="310" y="520" width="30" height="20" as="geometry" />
        </mxCell>
        <mxCell id="Nju2zV7gfccPYhDScZY9-1" value="" style="edgeStyle=orthogonalEdgeStyle;rounded=0;orthogonalLoop=1;jettySize=auto;html=1;entryX=0.5;entryY=0;entryDx=0;entryDy=0;" edge="1" parent="5ZKCv4_gXIRes1iLkZPY-1" source="4WC-akgWe15F0dEcDfo8-1" target="Nc_KRi3cYFYgeGKB1HNW-2">
          <mxGeometry relative="1" as="geometry">
            <mxPoint x="163.76470588235293" y="1070" as="targetPoint" />
            <Array as="points">
              <mxPoint x="164" y="1440" />
              <mxPoint x="340" y="1440" />
            </Array>
          </mxGeometry>
        </mxCell>
        <mxCell id="4WC-akgWe15F0dEcDfo8-1" value="仿真" style="whiteSpace=wrap;html=1;" vertex="1" parent="5ZKCv4_gXIRes1iLkZPY-1">
          <mxGeometry x="105" y="970" width="120" height="60" as="geometry" />
        </mxCell>
        <mxCell id="Nc_KRi3cYFYgeGKB1HNW-5" style="edgeStyle=orthogonalEdgeStyle;rounded=0;orthogonalLoop=1;jettySize=auto;html=1;entryX=0.5;entryY=0;entryDx=0;entryDy=0;fontColor=#000000;" edge="1" parent="5ZKCv4_gXIRes1iLkZPY-1" source="Nc_KRi3cYFYgeGKB1HNW-2" target="Nc_KRi3cYFYgeGKB1HNW-4">
          <mxGeometry relative="1" as="geometry" />
        </mxCell>
        <mxCell id="Nc_KRi3cYFYgeGKB1HNW-2" value="&lt;span style=&quot;background-color: rgb(255 , 255 , 255) ; font-family: &amp;#34;jetbrains mono&amp;#34; , monospace ; font-size: 11.3pt&quot;&gt;CheckFault&lt;/span&gt;" style="rounded=0;whiteSpace=wrap;html=1;fontColor=#000000;strokeWidth=1;" vertex="1" parent="5ZKCv4_gXIRes1iLkZPY-1">
          <mxGeometry x="280" y="1480" width="120" height="60" as="geometry" />
        </mxCell>
        <mxCell id="w4jrGMaK9T4-VS6P0UqO-1" style="edgeStyle=orthogonalEdgeStyle;rounded=0;orthogonalLoop=1;jettySize=auto;html=1;fontColor=#000000;" edge="1" parent="5ZKCv4_gXIRes1iLkZPY-1" source="Nc_KRi3cYFYgeGKB1HNW-4" target="w4jrGMaK9T4-VS6P0UqO-0">
          <mxGeometry relative="1" as="geometry" />
        </mxCell>
        <mxCell id="Nc_KRi3cYFYgeGKB1HNW-4" value="Alarm判决&amp;amp;Action" style="rounded=0;whiteSpace=wrap;html=1;fontColor=#000000;strokeWidth=1;" vertex="1" parent="5ZKCv4_gXIRes1iLkZPY-1">
          <mxGeometry x="280" y="1580" width="120" height="60" as="geometry" />
        </mxCell>
        <mxCell id="w4jrGMaK9T4-VS6P0UqO-2" style="edgeStyle=orthogonalEdgeStyle;rounded=0;orthogonalLoop=1;jettySize=auto;html=1;fontColor=#000000;exitX=0.454;exitY=1.008;exitDx=0;exitDy=0;exitPerimeter=0;" edge="1" parent="5ZKCv4_gXIRes1iLkZPY-1" source="w4jrGMaK9T4-VS6P0UqO-0">
          <mxGeometry relative="1" as="geometry">
            <mxPoint x="240" y="349.9999999999999" as="targetPoint" />
            <Array as="points">
              <mxPoint x="335" y="1790" />
              <mxPoint x="740" y="1790" />
              <mxPoint x="740" y="350" />
            </Array>
          </mxGeometry>
        </mxCell>
        <mxCell id="w4jrGMaK9T4-VS6P0UqO-0" value="结果数据保存" style="rounded=0;whiteSpace=wrap;html=1;fontColor=#000000;strokeWidth=1;" vertex="1" parent="5ZKCv4_gXIRes1iLkZPY-1">
          <mxGeometry x="280" y="1680" width="120" height="60" as="geometry" />
        </mxCell>
        <mxCell id="1h0vv5jrxgCh05w-5G5Z-5" style="edgeStyle=orthogonalEdgeStyle;rounded=0;orthogonalLoop=1;jettySize=auto;html=1;entryX=0.5;entryY=0;entryDx=0;entryDy=0;fontColor=#000000;" edge="1" parent="5ZKCv4_gXIRes1iLkZPY-1" source="1h0vv5jrxgCh05w-5G5Z-0" target="1h0vv5jrxgCh05w-5G5Z-2">
          <mxGeometry relative="1" as="geometry" />
        </mxCell>
        <mxCell id="1h0vv5jrxgCh05w-5G5Z-0" value="根据Window参数&lt;br&gt;计算范围" style="rounded=0;whiteSpace=wrap;html=1;fontColor=#000000;strokeWidth=1;" vertex="1" parent="5ZKCv4_gXIRes1iLkZPY-1">
          <mxGeometry x="440" y="930" width="120" height="60" as="geometry" />
        </mxCell>
        <mxCell id="1h0vv5jrxgCh05w-5G5Z-3" style="edgeStyle=orthogonalEdgeStyle;rounded=0;orthogonalLoop=1;jettySize=auto;html=1;fontColor=#000000;" edge="1" parent="5ZKCv4_gXIRes1iLkZPY-1" source="1h0vv5jrxgCh05w-5G5Z-2">
          <mxGeometry relative="1" as="geometry">
            <mxPoint x="240" y="350" as="targetPoint" />
            <Array as="points">
              <mxPoint x="740" y="1100" />
              <mxPoint x="740" y="350" />
            </Array>
          </mxGeometry>
        </mxCell>
        <mxCell id="1h0vv5jrxgCh05w-5G5Z-8" style="edgeStyle=orthogonalEdgeStyle;rounded=0;orthogonalLoop=1;jettySize=auto;html=1;entryX=0.5;entryY=0;entryDx=0;entryDy=0;fontSize=11;fontColor=#000000;" edge="1" parent="5ZKCv4_gXIRes1iLkZPY-1" source="1h0vv5jrxgCh05w-5G5Z-2" target="1h0vv5jrxgCh05w-5G5Z-7">
          <mxGeometry relative="1" as="geometry" />
        </mxCell>
        <mxCell id="1h0vv5jrxgCh05w-5G5Z-2" value="当前位置P是否&lt;br&gt;需要计算" style="rhombus;whiteSpace=wrap;html=1;fontColor=#000000;strokeWidth=1;" vertex="1" parent="5ZKCv4_gXIRes1iLkZPY-1">
          <mxGeometry x="440" y="1030" width="120" height="60" as="geometry" />
        </mxCell>
        <mxCell id="1h0vv5jrxgCh05w-5G5Z-4" value="否" style="text;html=1;align=center;verticalAlign=middle;resizable=0;points=[];autosize=1;strokeColor=none;fillColor=none;fontColor=#000000;" vertex="1" parent="5ZKCv4_gXIRes1iLkZPY-1">
          <mxGeometry x="555" y="1080" width="30" height="20" as="geometry" />
        </mxCell>
        <mxCell id="1h0vv5jrxgCh05w-5G5Z-10" style="edgeStyle=orthogonalEdgeStyle;rounded=0;orthogonalLoop=1;jettySize=auto;html=1;entryX=0.5;entryY=0;entryDx=0;entryDy=0;fontSize=11;fontColor=#000000;" edge="1" parent="5ZKCv4_gXIRes1iLkZPY-1" source="1h0vv5jrxgCh05w-5G5Z-7" target="1h0vv5jrxgCh05w-5G5Z-9">
          <mxGeometry relative="1" as="geometry" />
        </mxCell>
        <mxCell id="1h0vv5jrxgCh05w-5G5Z-7" value="&lt;span style=&quot;color: rgb(51 , 51 , 51) ; font-family: &amp;#34;merriweather&amp;#34; , &amp;#34;pt serif&amp;#34; , &amp;#34;georgia&amp;#34; , &amp;#34;times new roman&amp;#34; , &amp;#34;stsong&amp;#34; , &amp;#34;segoe ui emoji&amp;#34; , serif ; font-size: 11px ; text-align: left ; background-color: rgb(255 , 255 , 255)&quot;&gt;获取同chamber下max_run_number个run数据&lt;/span&gt;" style="rounded=0;whiteSpace=wrap;html=1;fontColor=#000000;strokeWidth=1;fontSize=11;" vertex="1" parent="5ZKCv4_gXIRes1iLkZPY-1">
          <mxGeometry x="440" y="1130" width="120" height="60" as="geometry" />
        </mxCell>
        <mxCell id="1h0vv5jrxgCh05w-5G5Z-12" style="edgeStyle=orthogonalEdgeStyle;rounded=0;orthogonalLoop=1;jettySize=auto;html=1;entryX=0.5;entryY=0;entryDx=0;entryDy=0;fontSize=11;fontColor=#000000;" edge="1" parent="5ZKCv4_gXIRes1iLkZPY-1" source="1h0vv5jrxgCh05w-5G5Z-9" target="1h0vv5jrxgCh05w-5G5Z-11">
          <mxGeometry relative="1" as="geometry" />
        </mxCell>
        <mxCell id="1h0vv5jrxgCh05w-5G5Z-9" value="位置P异常过滤run" style="rounded=0;whiteSpace=wrap;html=1;fontSize=11;fontColor=#000000;strokeWidth=1;" vertex="1" parent="5ZKCv4_gXIRes1iLkZPY-1">
          <mxGeometry x="440" y="1230" width="120" height="60" as="geometry" />
        </mxCell>
        <mxCell id="1h0vv5jrxgCh05w-5G5Z-13" style="edgeStyle=orthogonalEdgeStyle;rounded=0;orthogonalLoop=1;jettySize=auto;html=1;entryX=0.5;entryY=0;entryDx=0;entryDy=0;fontSize=11;fontColor=#000000;exitX=0.5;exitY=1;exitDx=0;exitDy=0;" edge="1" parent="5ZKCv4_gXIRes1iLkZPY-1" source="1h0vv5jrxgCh05w-5G5Z-11" target="Nc_KRi3cYFYgeGKB1HNW-2">
          <mxGeometry relative="1" as="geometry">
            <Array as="points">
              <mxPoint x="500" y="1440" />
              <mxPoint x="340" y="1440" />
            </Array>
          </mxGeometry>
        </mxCell>
        <mxCell id="1h0vv5jrxgCh05w-5G5Z-11" value="动态Limit计算" style="rounded=0;whiteSpace=wrap;html=1;fontSize=11;fontColor=#000000;strokeWidth=1;" vertex="1" parent="5ZKCv4_gXIRes1iLkZPY-1">
          <mxGeometry x="440" y="1330" width="120" height="60" as="geometry" />
        </mxCell>
        <mxCell id="1h0vv5jrxgCh05w-5G5Z-14" value="使用静态Limit" style="text;html=1;align=center;verticalAlign=middle;resizable=0;points=[];autosize=1;strokeColor=none;fillColor=none;fontSize=11;fontColor=#000000;" vertex="1" parent="5ZKCv4_gXIRes1iLkZPY-1">
          <mxGeometry x="120" y="1040" width="90" height="20" as="geometry" />
        </mxCell>
      </root>
    </mxGraphModel>
  </diagram>
</mxfile>
